<svg xmlns="http://www.w3.org/2000/svg" viewBox="0 0 20 20"><defs><style>.a{fill:#9ea0a5;}</style></defs><path class="a" d="M1419,1128h-1.656c-.241,0-.572-.016-.57-.257a4.541,4.541,0,0,0-.928-2.845c-.164-.177-.116-.339.054-.509l1.171-1.108a.962.962,0,0,0,0-1.383,1,1,0,0,0-1.414.015l-1.171,1.179a.5.5,0,0,1-.634.059,6.948,6.948,0,0,0-2.442-1.01.5.5,0,0,1-.41-.485V1120a1,1,0,0,0-2,0v1.656a.5.5,0,0,1-.41.487,6.95,6.95,0,0,0-2.442,1.011.5.5,0,0,1-.634-.054l-1.171-1.171a1,1,0,0,0-1.414,1.414l1.171,1.171a.49.49,0,0,1,.054.634,5.158,5.158,0,0,0-.952,2.692c-.027.239-.305.16-.546.16H1401a1,1,0,0,0,0,2h1.656c.241,0,.533.088.581.323a6.031,6.031,0,0,0,.917,2.279.691.691,0,0,1-.054.759l-1.171,1.233a1.038,1.038,0,0,0,0,1.446,1,1,0,0,0,1.414.015l1.171-1.163a.5.5,0,0,1,.634-.05,6.973,6.973,0,0,0,2.442,1.013.5.5,0,0,1,.41.489V1138a1,1,0,0,0,2,0v-1.656a.5.5,0,0,1,.41-.487,6.968,6.968,0,0,0,2.442-1.011.5.5,0,0,1,.634.054l1.171,1.171a1,1,0,0,0,1.414-1.414l-1.171-1.171a.5.5,0,0,1-.054-.634,7.233,7.233,0,0,0,1.011-1.942c.077-.228.246-.91.487-.91H1419a1,1,0,0,0,0-2m-4.18,2.358a4.934,4.934,0,0,1-3.462,3.462,5.017,5.017,0,0,1-6.178-6.178,4.934,4.934,0,0,1,3.462-3.462,5.017,5.017,0,0,1,6.178,6.178M1411,1129a1,1,0,1,1-1-1,1,1,0,0,1,1,1" transform="translate(-1400 -1119)"/></svg>