<svg xmlns="http://www.w3.org/2000/svg" viewBox="0 0 75.205 30.758"><defs><style>.a{fill:#21a79c;}</style></defs><g transform="translate(37.603 15.379)"><g transform="translate(-37.603 -15.379)"><path class="a" d="M24.845,12.268a3.2,3.2,0,0,1,1.786,3.124,3.118,3.118,0,0,1-1.74,3.08L5.843,29.81q-2.272,1.473-3.66.312A7.013,7.013,0,0,1,.889,28.516,5.013,5.013,0,0,1,0,26.373,2.391,2.391,0,0,1,.267,25.21,5.8,5.8,0,0,1,2.185,23.6l13.872-8.211L2.23,7.18a13.663,13.663,0,0,1-1.2-.8,2.423,2.423,0,0,1-.981-1.83A4.337,4.337,0,0,1,.8,2.4Q2.184.083,3.39.082A4.63,4.63,0,0,1,5.8.93Z" transform="translate(0.001 -0.027)"/><path class="a" d="M91.92,1.594A1.724,1.724,0,0,0,91.4.711,3.076,3.076,0,0,0,90.3.206,7.235,7.235,0,0,0,88.374,0,6.712,6.712,0,0,0,86.38.251a2,2,0,0,0-1.2.987,5.12,5.12,0,0,0-.4,2.331V17.764Q81.8,13.9,72.947,1.846c-.157-.189-.292-.352-.412-.492a1.567,1.567,0,0,0-.442-.642A3.077,3.077,0,0,0,71,.207,7.238,7.238,0,0,0,69.075,0h-.112a6.972,6.972,0,0,0-2.057.252,2,2,0,0,0-1.2.987,5.12,5.12,0,0,0-.4,2.331V17.536Q62.254,13.56,53.65,1.846A11.052,11.052,0,0,0,52.684.754,2.58,2.58,0,0,0,51.657.229,6.9,6.9,0,0,0,49.664,0a6.972,6.972,0,0,0-2.057.252,2,2,0,0,0-1.2.987,5.12,5.12,0,0,0-.4,2.331V27a12.773,12.773,0,0,0,.063,1.47,3.345,3.345,0,0,0,.4,1.136q.587,1.136,3.189,1.136,2.686,0,3.273-1.136a3.391,3.391,0,0,0,.4-1.092,12.122,12.122,0,0,0,.063-1.47V13.227q2.979,3.865,12.423,16.464c.01.013.021.023.032.036a1.7,1.7,0,0,0,.649.574,2.488,2.488,0,0,0,.369.189,4.907,4.907,0,0,0,1.462.233h.021c.16.008.333.012.514.015h.267q2.685,0,3.273-1.136a3.391,3.391,0,0,0,.4-1.092,12.124,12.124,0,0,0,.063-1.47V13.455q3.07,3.992,12.248,16.236a2.449,2.449,0,0,0,1.049.8,6.912,6.912,0,0,0,2.266.252q2.686,0,3.274-1.136a3.391,3.391,0,0,0,.4-1.092,12.126,12.126,0,0,0,.063-1.47V3.736a6.617,6.617,0,0,0-.246-2.142Z" transform="translate(-16.969 0.005)"/></g></g></svg>